# xmcd CD database file
#
# Track frame offsets:
#	150
#	10750
#	24251
#	40309
#	55050
#	68452
#	78260
#	92225
#	103443
#	118238
#	134219
#	152229
#	167484
#	178310
#	191779
#	205290
#	216750
#
# Disc length: 3154 seconds
#
# Revision: 0
# Processed by: cddbd v1.5.2PL0 Copyright (c) Steve Scherf et al.
# Submitted via: Feurio! 1.68 - http://www.feurio.com
#
DISCID=f40c5011
DTITLE=RADIO  BIRIKINA - 60' CHRISTMAS
DYEAR=1900
DGENRE=
TTITLE0=I  GIGANTI - una ragzza in due
TTITLE1=RENATO DEI KINGS - caffe'  amaro 
TTITLE2=FORMULA 3  - eppur  mi son scordato di te
TTITLE3=FAUSTO LEALI - deborah
TTITLE4=I CALIFFI - al  mattino
TTITLE5=I CAMALEONTI - se  ritornerai
TTITLE6=I  DELFINI - il   mio  dolore
TTITLE7=DINO - te lo  leggo  negli occhi
TTITLE8=LORENZO PILAT - mule skinner blues
TTITLE9=EDOARDO VIANELLO - o mio signore
TTITLE10=MAL - sewi la mia donna
TTITLE11=EQUIPE 84 - tutta mia la citta'
TTITLE12=ROYALS - ua prta chiusa
TTITLE13=GIULIANO EI NOTTURNI - oggi sono tanto triste
TTITLE14=ADAMO - affida una lacrima al vento
TTITLE15=FRED  BONGUSTO - amore fermati
TTITLE16=DIK DIK - vendo  casa
EXTD=
EXTT0=
EXTT1=
EXTT2=
EXTT3=
EXTT4=
EXTT5=
EXTT6=
EXTT7=
EXTT8=
EXTT9=
EXTT10=
EXTT11=
EXTT12=
EXTT13=
EXTT14=
EXTT15=
EXTT16=
PLAYORDER=
